<svg xmlns="http://www.w3.org/2000/svg" xmlns:xlink="http://www.w3.org/1999/xlink" width="94" zoomAndPan="magnify" viewBox="0 0 70.5 70.499999" height="94" preserveAspectRatio="xMidYMid meet" version="1.0"><defs><clipPath id="9c8232751f"><path d="M 0 0 L 70.003906 0 L 70.003906 70 L 0 70 Z M 0 0 " clip-rule="nonzero"/></clipPath></defs><g clip-path="url(#9c8232751f)"><path fill="#ffffff" d="M 34.984375 69.988281 L 34.511719 69.988281 L 34.457031 69.984375 L 34.289062 69.984375 L 34.230469 69.980469 L 34.199219 69.980469 C 34.164062 69.980469 34.132812 69.980469 34.097656 69.976562 L 34.085938 69.976562 C 34.046875 69.976562 34.015625 69.976562 33.972656 69.976562 L 33.972656 69.972656 C 23.210938 69.660156 13.664062 64.472656 7.457031 56.550781 C 7.453125 56.542969 7.445312 56.539062 7.445312 56.535156 C 3.851562 51.945312 1.382812 46.4375 0.441406 40.425781 L 0.441406 40.421875 C 0.429688 40.332031 0.410156 40.242188 0.402344 40.15625 L 0.394531 40.125 L 0.390625 40.097656 C 0.378906 40.027344 0.371094 39.953125 0.363281 39.882812 L 0.355469 39.851562 L 0.351562 39.804688 L 0.34375 39.769531 C 0.339844 39.714844 0.328125 39.664062 0.324219 39.609375 L 0.316406 39.574219 L 0.3125 39.53125 L 0.304688 39.484375 L 0.300781 39.441406 C 0.292969 39.40625 0.292969 39.371094 0.289062 39.335938 L 0.285156 39.300781 L 0.277344 39.253906 L 0.273438 39.207031 L 0.265625 39.167969 C 0.261719 39.132812 0.261719 39.097656 0.253906 39.0625 L 0.25 39.023438 L 0.242188 38.976562 L 0.238281 38.929688 L 0.234375 38.890625 C 0.234375 38.855469 0.226562 38.820312 0.226562 38.789062 L 0.214844 38.730469 L 0.210938 38.675781 L 0.203125 38.605469 L 0.199219 38.5625 L 0.195312 38.507812 L 0.1875 38.453125 L 0.183594 38.398438 L 0.175781 38.328125 L 0.171875 38.285156 L 0.171875 38.230469 L 0.164062 38.179688 L 0.160156 38.125 L 0.15625 38.066406 L 0.148438 38.003906 L 0.144531 37.957031 L 0.136719 37.902344 L 0.136719 37.847656 L 0.132812 37.789062 L 0.125 37.722656 L 0.121094 37.679688 L 0.117188 37.625 L 0.117188 37.566406 L 0.109375 37.511719 L 0.105469 37.441406 L 0.105469 37.398438 L 0.0976562 37.347656 L 0.09375 37.289062 L 0.09375 37.234375 L 0.0859375 37.179688 L 0.0820312 37.113281 L 0.0820312 37.0625 L 0.0742188 37.011719 L 0.0742188 36.957031 L 0.0703125 36.898438 L 0.0703125 36.832031 L 0.0664062 36.785156 L 0.0664062 36.730469 L 0.0585938 36.675781 L 0.0585938 36.621094 L 0.0546875 36.550781 L 0.0546875 36.507812 L 0.046875 36.453125 L 0.046875 36.339844 L 0.0429688 36.285156 L 0.0429688 36.164062 L 0.0351562 36.117188 L 0.0351562 36.003906 L 0.03125 35.9375 L 0.03125 35.777344 L 0.0273438 35.722656 L 0.0273438 35.441406 L 0.0195312 35.367188 L 0.0195312 35.039062 C 0.0195312 35.023438 0.0195312 35.007812 0.0195312 34.988281 L 0.0195312 34.59375 L 0.0273438 34.535156 L 0.0273438 34.253906 L 0.03125 34.199219 L 0.03125 34.027344 L 0.0351562 33.972656 L 0.0351562 33.847656 L 0.0429688 33.804688 L 0.0429688 33.691406 L 0.046875 33.636719 L 0.046875 33.523438 L 0.0546875 33.46875 L 0.0546875 33.410156 L 0.0585938 33.355469 L 0.0585938 33.300781 L 0.0664062 33.242188 L 0.0664062 33.179688 L 0.0703125 33.132812 L 0.0703125 33.078125 L 0.0742188 33.019531 L 0.0742188 32.953125 L 0.0820312 32.90625 L 0.0859375 32.851562 L 0.0859375 32.796875 L 0.09375 32.742188 L 0.09375 32.671875 L 0.0976562 32.628906 L 0.105469 32.574219 L 0.105469 32.519531 L 0.109375 32.464844 L 0.117188 32.40625 L 0.117188 32.347656 L 0.121094 32.296875 L 0.125 32.242188 L 0.132812 32.1875 L 0.136719 32.128906 L 0.136719 32.066406 L 0.144531 32.019531 L 0.148438 31.964844 L 0.15625 31.910156 L 0.160156 31.851562 L 0.164062 31.785156 L 0.171875 31.742188 L 0.175781 31.6875 L 0.175781 31.632812 L 0.183594 31.578125 L 0.195312 31.507812 L 0.195312 31.464844 L 0.199219 31.40625 L 0.203125 31.355469 L 0.210938 31.300781 L 0.214844 31.246094 L 0.226562 31.183594 L 0.234375 31.136719 L 0.242188 31.027344 L 0.25 30.972656 L 0.253906 30.90625 L 0.261719 30.859375 L 0.265625 30.804688 L 0.273438 30.753906 L 0.285156 30.699219 L 0.289062 30.628906 L 0.292969 30.585938 L 0.300781 30.53125 L 0.3125 30.476562 L 0.316406 30.421875 L 0.328125 30.351562 L 0.328125 30.3125 C 0.332031 30.277344 0.339844 30.242188 0.34375 30.207031 L 0.351562 30.152344 L 0.363281 30.074219 L 0.367188 30.039062 C 0.371094 30.003906 0.378906 29.96875 0.382812 29.933594 L 0.390625 29.871094 L 0.402344 29.800781 L 0.40625 29.753906 L 0.417969 29.714844 C 0.417969 29.679688 0.429688 29.644531 0.433594 29.609375 L 0.441406 29.570312 L 0.445312 29.527344 L 0.453125 29.480469 L 0.457031 29.445312 C 0.460938 29.40625 0.46875 29.371094 0.472656 29.335938 L 0.480469 29.300781 L 0.492188 29.253906 L 0.496094 29.207031 L 0.5 29.171875 C 0.511719 29.121094 0.519531 29.066406 0.53125 29.011719 L 0.535156 28.980469 L 0.539062 28.933594 L 0.546875 28.902344 C 0.558594 28.832031 0.574219 28.761719 0.585938 28.6875 C 1.621094 23.003906 4.03125 17.800781 7.453125 13.429688 C 7.457031 13.425781 7.464844 13.417969 7.46875 13.414062 C 13.875 5.242188 23.839844 -0.0117188 35.023438 -0.0117188 C 46.207031 -0.0117188 56.167969 5.242188 62.574219 13.414062 C 62.582031 13.417969 62.585938 13.425781 62.59375 13.429688 C 66.015625 17.800781 68.421875 23.003906 69.457031 28.6875 C 69.46875 28.761719 69.484375 28.832031 69.496094 28.902344 L 69.503906 28.933594 L 69.507812 28.980469 L 69.515625 29.011719 C 69.523438 29.066406 69.53125 29.117188 69.542969 29.171875 L 69.546875 29.207031 L 69.5625 29.300781 L 69.570312 29.335938 C 69.574219 29.371094 69.582031 29.40625 69.585938 29.445312 L 69.59375 29.480469 L 69.597656 29.527344 L 69.609375 29.570312 L 69.613281 29.609375 C 69.621094 29.644531 69.621094 29.679688 69.625 29.714844 L 69.636719 29.777344 L 69.648438 29.847656 L 69.652344 29.890625 L 69.660156 29.933594 C 69.664062 29.96875 69.671875 30.003906 69.675781 30.039062 L 69.683594 30.074219 L 69.691406 30.167969 L 69.699219 30.207031 C 69.703125 30.242188 69.710938 30.277344 69.714844 30.3125 L 69.722656 30.367188 L 69.730469 30.441406 L 69.738281 30.488281 L 69.742188 30.53125 L 69.75 30.585938 L 69.753906 30.640625 L 69.761719 30.699219 L 69.773438 30.765625 L 69.777344 30.808594 L 69.78125 30.867188 L 69.789062 30.917969 L 69.792969 30.972656 L 69.804688 31.042969 L 69.8125 31.085938 L 69.816406 31.136719 L 69.820312 31.191406 L 69.828125 31.246094 L 69.832031 31.300781 L 69.839844 31.367188 L 69.84375 31.414062 L 69.851562 31.464844 L 69.855469 31.523438 L 69.859375 31.578125 L 69.867188 31.644531 L 69.871094 31.691406 L 69.871094 31.742188 L 69.878906 31.796875 L 69.882812 31.851562 L 69.890625 31.910156 L 69.894531 31.96875 L 69.902344 32.019531 L 69.90625 32.074219 L 69.90625 32.128906 L 69.910156 32.1875 L 69.917969 32.25 L 69.921875 32.296875 L 69.929688 32.351562 L 69.929688 32.40625 L 69.933594 32.464844 L 69.941406 32.53125 L 69.941406 32.578125 L 69.945312 32.628906 L 69.949219 32.6875 L 69.949219 32.742188 L 69.957031 32.796875 L 69.960938 32.855469 L 69.960938 32.910156 L 69.96875 32.964844 L 69.96875 33.019531 L 69.972656 33.078125 L 69.972656 33.140625 L 69.980469 33.1875 L 69.980469 33.246094 L 69.984375 33.300781 L 69.984375 33.355469 L 69.988281 33.425781 L 69.988281 33.46875 L 69.996094 33.523438 L 69.996094 33.636719 L 70 33.691406 L 70 33.75 L 70.007812 33.804688 L 70.007812 33.972656 L 70.011719 34.039062 L 70.011719 34.199219 L 70.019531 34.253906 L 70.019531 34.480469 L 70.023438 34.535156 L 70.023438 34.9375 C 70.023438 34.953125 70.023438 34.96875 70.023438 34.988281 L 70.023438 35.441406 L 70.019531 35.511719 L 70.019531 35.722656 L 70.011719 35.777344 L 70.011719 35.949219 L 70.007812 36.003906 L 70.007812 36.171875 L 70 36.226562 L 70 36.285156 L 69.996094 36.339844 L 69.996094 36.453125 L 69.988281 36.507812 L 69.988281 36.566406 L 69.984375 36.621094 L 69.984375 36.675781 L 69.980469 36.734375 L 69.980469 36.789062 L 69.972656 36.84375 L 69.972656 36.898438 L 69.96875 36.957031 L 69.96875 37.019531 L 69.960938 37.070312 L 69.957031 37.125 L 69.957031 37.179688 L 69.949219 37.234375 L 69.949219 37.300781 L 69.945312 37.347656 L 69.941406 37.402344 L 69.941406 37.457031 L 69.933594 37.511719 L 69.929688 37.582031 L 69.929688 37.625 L 69.921875 37.679688 L 69.917969 37.734375 L 69.910156 37.789062 L 69.90625 37.847656 L 69.90625 37.90625 L 69.902344 37.960938 L 69.894531 38.011719 L 69.890625 38.066406 L 69.882812 38.125 L 69.878906 38.1875 L 69.871094 38.234375 L 69.871094 38.289062 L 69.867188 38.34375 L 69.859375 38.398438 L 69.851562 38.46875 L 69.851562 38.511719 L 69.84375 38.570312 L 69.839844 38.621094 L 69.832031 38.675781 L 69.820312 38.746094 L 69.816406 38.789062 C 69.816406 38.820312 69.8125 38.855469 69.8125 38.890625 L 69.804688 38.929688 L 69.800781 38.976562 L 69.792969 39.023438 L 69.789062 39.0625 C 69.78125 39.097656 69.78125 39.132812 69.777344 39.167969 L 69.773438 39.207031 L 69.765625 39.253906 L 69.761719 39.300781 L 69.753906 39.335938 C 69.75 39.371094 69.75 39.40625 69.742188 39.441406 L 69.730469 39.503906 L 69.726562 39.574219 L 69.722656 39.609375 C 69.714844 39.664062 69.703125 39.71875 69.699219 39.769531 L 69.691406 39.804688 L 69.6875 39.851562 L 69.683594 39.882812 C 69.675781 39.953125 69.664062 40.023438 69.652344 40.097656 L 69.648438 40.125 L 69.644531 40.15625 C 69.632812 40.246094 69.613281 40.335938 69.605469 40.421875 L 69.605469 40.425781 C 68.664062 46.4375 66.191406 51.945312 62.601562 56.535156 C 62.597656 56.539062 62.59375 56.542969 62.585938 56.550781 C 56.375 64.472656 46.828125 69.65625 36.070312 69.972656 L 36.070312 69.976562 C 36.03125 69.976562 35.996094 69.976562 35.957031 69.976562 L 35.945312 69.976562 C 35.914062 69.980469 35.878906 69.980469 35.851562 69.980469 L 35.800781 69.980469 L 35.753906 69.984375 L 35.585938 69.984375 L 35.527344 69.988281 Z M 34.242188 54 C 29.238281 54.027344 24.503906 54.316406 20.277344 54.816406 C 21.394531 57.246094 22.71875 59.402344 24.203125 61.214844 C 27.046875 64.695312 30.492188 66.894531 34.242188 67.164062 Z M 37.042969 54.015625 L 37.042969 67 C 40.3125 66.386719 43.316406 64.308594 45.839844 61.214844 C 47.324219 59.402344 48.648438 57.246094 49.765625 54.816406 C 45.890625 54.359375 41.589844 54.078125 37.042969 54.015625 Z M 52.652344 55.199219 C 51.359375 58.183594 49.789062 60.816406 48.007812 62.988281 C 47.3125 63.839844 46.585938 64.621094 45.832031 65.328125 C 50.949219 63.5 55.472656 60.414062 59.03125 56.441406 C 57.132812 55.96875 54.992188 55.550781 52.652344 55.199219 Z M 17.390625 55.199219 C 15.050781 55.550781 12.910156 55.96875 11.011719 56.441406 C 14.570312 60.414062 19.09375 63.503906 24.214844 65.328125 C 23.457031 64.621094 22.730469 63.839844 22.035156 62.988281 C 20.253906 60.816406 18.6875 58.183594 17.390625 55.199219 Z M 13.476562 36.386719 L 2.847656 36.386719 L 2.855469 36.441406 L 2.855469 36.496094 L 2.859375 36.550781 L 2.859375 36.597656 L 2.863281 36.644531 L 2.863281 36.699219 L 2.871094 36.753906 L 2.871094 36.804688 L 2.875 36.851562 L 2.875 36.902344 L 2.882812 36.957031 L 2.882812 37.007812 L 2.886719 37.054688 L 2.886719 37.105469 L 2.894531 37.164062 L 2.894531 37.214844 L 2.898438 37.261719 L 2.902344 37.3125 L 2.902344 37.367188 L 2.910156 37.417969 L 2.914062 37.464844 L 2.914062 37.515625 L 2.921875 37.570312 L 2.925781 37.621094 L 2.933594 37.667969 L 2.933594 37.71875 L 2.9375 37.769531 L 2.945312 37.824219 C 2.949219 37.890625 2.953125 37.957031 2.960938 38.023438 L 2.960938 38.027344 C 3.398438 42.652344 4.808594 46.992188 6.992188 50.839844 L 7.019531 50.886719 L 7.042969 50.925781 L 7.058594 50.964844 L 7.105469 51.035156 C 7.703125 52.082031 8.363281 53.089844 9.074219 54.058594 C 11.179688 53.472656 13.628906 52.957031 16.34375 52.53125 C 14.648438 47.761719 13.617188 42.261719 13.476562 36.386719 Z M 67.167969 36.851562 L 67.171875 36.792969 L 67.179688 36.742188 L 67.179688 36.695312 L 67.183594 36.636719 L 67.183594 36.535156 L 67.191406 36.488281 L 67.191406 36.433594 L 67.195312 36.386719 L 56.566406 36.386719 C 56.425781 42.261719 55.394531 47.761719 53.699219 52.53125 C 56.414062 52.957031 58.863281 53.472656 60.96875 54.058594 C 61.679688 53.089844 62.339844 52.082031 62.9375 51.035156 L 62.984375 50.964844 L 63 50.925781 L 63.027344 50.882812 L 63.050781 50.839844 C 65.234375 46.992188 66.648438 42.652344 67.082031 38.027344 L 67.082031 38.023438 C 67.089844 37.957031 67.09375 37.890625 67.101562 37.824219 L 67.105469 37.769531 L 67.113281 37.71875 L 67.113281 37.667969 L 67.117188 37.613281 L 67.121094 37.566406 L 67.128906 37.515625 L 67.128906 37.460938 L 67.132812 37.410156 L 67.140625 37.359375 L 67.140625 37.3125 L 67.144531 37.257812 L 67.152344 37.203125 L 67.152344 37.15625 L 67.15625 37.105469 L 67.15625 37.050781 L 67.160156 36.996094 L 67.160156 36.949219 L 67.167969 36.902344 Z M 34.242188 51.203125 L 34.242188 36.386719 L 16.277344 36.386719 C 16.421875 42.148438 17.460938 47.527344 19.167969 52.132812 C 23.691406 51.566406 28.8125 51.230469 34.242188 51.203125 Z M 53.765625 36.386719 L 37.042969 36.386719 L 37.042969 51.214844 C 42.015625 51.285156 46.699219 51.609375 50.875 52.132812 C 52.585938 47.527344 53.621094 42.148438 53.765625 36.386719 Z M 50.871094 17.828125 C 46.699219 18.351562 42.011719 18.675781 37.042969 18.746094 L 37.042969 33.589844 L 53.765625 33.589844 C 53.621094 27.820312 52.585938 22.4375 50.871094 17.828125 Z M 63.089844 19.207031 C 62.445312 18.058594 61.730469 16.957031 60.957031 15.90625 C 58.851562 16.488281 56.410156 17.003906 53.691406 17.429688 C 55.390625 22.203125 56.425781 27.707031 56.566406 33.589844 L 67.195312 33.589844 L 67.191406 33.535156 L 67.191406 33.480469 L 67.183594 33.425781 L 67.183594 33.378906 L 67.179688 33.328125 L 67.179688 33.28125 L 67.171875 33.222656 L 67.171875 33.171875 L 67.167969 33.125 L 67.167969 33.074219 L 67.160156 33.015625 L 67.160156 32.96875 L 67.15625 32.917969 L 67.15625 32.871094 L 67.152344 32.8125 L 67.152344 32.761719 L 67.144531 32.714844 L 67.140625 32.664062 L 67.140625 32.609375 L 67.132812 32.558594 L 67.128906 32.511719 L 67.128906 32.460938 L 67.121094 32.40625 L 67.117188 32.355469 L 67.113281 32.308594 L 67.113281 32.257812 C 67.105469 32.238281 67.105469 32.222656 67.105469 32.207031 L 67.101562 32.152344 L 67.09375 32.105469 L 67.089844 32.054688 C 67.089844 32.035156 67.089844 32.019531 67.089844 32.003906 L 67.082031 31.949219 L 67.078125 31.898438 L 67.070312 31.851562 C 67.070312 31.832031 67.066406 31.816406 67.066406 31.800781 L 67.0625 31.75 C 66.617188 27.316406 65.273438 23.152344 63.21875 19.433594 L 63.191406 19.386719 L 63.167969 19.34375 L 63.144531 19.308594 L 63.128906 19.269531 L 63.105469 19.234375 Z M 19.171875 17.828125 C 17.460938 22.4375 16.421875 27.820312 16.277344 33.589844 L 34.242188 33.589844 L 34.242188 18.757812 C 28.8125 18.730469 23.691406 18.394531 19.171875 17.828125 Z M 16.351562 17.429688 C 13.632812 17.003906 11.191406 16.488281 9.085938 15.90625 C 8.3125 16.957031 7.597656 18.058594 6.953125 19.207031 L 6.929688 19.25 L 6.902344 19.289062 L 6.898438 19.308594 L 6.875 19.347656 L 6.847656 19.390625 L 6.824219 19.433594 C 4.769531 23.152344 3.425781 27.320312 2.984375 31.75 L 2.976562 31.800781 C 2.976562 31.816406 2.972656 31.832031 2.972656 31.851562 L 2.964844 31.902344 L 2.960938 31.953125 L 2.953125 32.003906 C 2.953125 32.019531 2.953125 32.035156 2.953125 32.054688 L 2.945312 32.15625 L 2.9375 32.207031 C 2.9375 32.222656 2.9375 32.238281 2.933594 32.257812 L 2.933594 32.3125 L 2.925781 32.363281 L 2.921875 32.410156 L 2.914062 32.460938 L 2.914062 32.515625 L 2.910156 32.566406 L 2.902344 32.617188 L 2.902344 32.664062 L 2.898438 32.722656 L 2.894531 32.773438 L 2.894531 32.820312 L 2.886719 32.871094 L 2.886719 32.925781 L 2.882812 32.980469 L 2.882812 33.027344 L 2.875 33.074219 L 2.871094 33.132812 L 2.871094 33.183594 L 2.863281 33.234375 L 2.863281 33.28125 L 2.859375 33.339844 L 2.859375 33.441406 L 2.855469 33.488281 L 2.855469 33.546875 L 2.847656 33.589844 L 13.476562 33.589844 C 13.617188 27.707031 14.652344 22.203125 16.351562 17.429688 Z M 34.242188 2.8125 C 30.492188 3.082031 27.046875 5.28125 24.203125 8.761719 C 22.71875 10.570312 21.402344 12.722656 20.289062 15.144531 C 24.503906 15.644531 29.238281 15.929688 34.242188 15.960938 Z M 37.042969 2.976562 L 37.042969 15.945312 C 41.589844 15.882812 45.886719 15.601562 49.757812 15.144531 C 48.640625 12.722656 47.324219 10.570312 45.839844 8.761719 C 43.316406 5.667969 40.3125 3.589844 37.042969 2.976562 Z M 24.214844 4.648438 C 19.101562 6.472656 14.582031 9.554688 11.023438 13.523438 C 12.921875 13.996094 15.0625 14.414062 17.398438 14.761719 C 18.691406 11.78125 20.257812 9.15625 22.035156 6.988281 C 22.730469 6.136719 23.457031 5.355469 24.214844 4.648438 Z M 45.832031 4.648438 C 46.585938 5.355469 47.3125 6.136719 48.007812 6.988281 C 49.785156 9.15625 51.351562 11.78125 52.644531 14.761719 C 54.980469 14.414062 57.121094 13.996094 59.019531 13.523438 C 55.46875 9.554688 50.945312 6.472656 45.832031 4.648438 Z M 45.832031 4.648438 " fill-opacity="1" fill-rule="evenodd"/></g></svg>